<svg width="68" height="50" viewBox="0 0 68 50" fill="none" xmlns="http://www.w3.org/2000/svg">
<path d="M24.8637 6.53595C30.085 3.09778 36.9337 3.08905 42.1643 6.51392C42.8322 5.49504 43.5982 4.54008 44.452 3.66188L44.6983 3.41005C37.9801 -1.14704 29.0454 -1.13572 22.3394 3.43838L22.6149 3.72169C23.4526 4.59005 24.2055 5.53219 24.8637 6.53595V6.53595Z" fill="#F2BF96"/>
<path fill-rule="evenodd" clip-rule="evenodd" d="M65.0189 2.43728C65.068 2.45233 65.1157 2.47128 65.1615 2.49394C65.795 2.73803 66.411 3.02303 67.0053 3.34703C66.4573 4.45305 65.8494 5.53011 65.1842 6.57367C61.0508 13.0335 54.8266 17.9773 47.4883 20.6292L47.4462 20.645C48.5738 29.4686 42.9096 42.1139 34.7632 48.2776L33.5091 49.222L32.2583 48.2776C24.1087 42.1171 18.4542 29.4749 19.5721 20.6607H19.5527C12.2045 18.0112 5.96918 13.0677 1.82435 6.60515C1.15665 5.56243 0.547641 4.4853 0 3.37851C0.589049 3.04732 1.20201 2.75801 1.83408 2.51283C1.88001 2.49122 1.9277 2.47332 1.97665 2.45931C2.60041 2.21777 3.2389 2.01382 3.8885 1.84861C5.1988 1.52598 6.54516 1.3621 7.89689 1.36068C15.09 1.36115 21.4048 6.00995 23.3504 12.7373C26.0001 10.0277 29.6798 8.49536 33.527 8.49952C37.3741 8.50369 41.0503 10.044 43.6938 12.7594C46.049 4.60363 54.6677 -0.241202 63.1201 1.83917C63.7659 1.99763 64.4003 2.19744 65.0189 2.43728ZM20.1554 16.6347C20.0629 13.2043 18.4521 9.97922 15.7355 7.78576C13.019 5.59229 9.46065 4.64351 5.97209 5.18245C9.53824 10.1833 14.4424 14.1431 20.1554 16.6347ZM33.5156 44.1318L33.5124 44.1289C40.1827 38.1785 44.8762 26.6848 43.2012 19.8675L43.0813 19.5181V19.4488C41.8525 15.3161 37.9582 12.4711 33.5302 12.4711C29.1021 12.4711 25.2079 15.3161 23.9791 19.4488V19.5118L23.8494 19.8518C22.1453 26.6785 26.8259 38.1785 33.5124 44.1289L33.5091 44.1318H33.5156ZM46.9051 16.6033C46.9051 16.6042 46.9051 16.6052 46.905 16.6062H46.8985C46.9007 16.6052 46.9029 16.6042 46.9051 16.6033ZM46.9051 16.6033C52.5895 14.1034 57.4691 10.1518 61.0235 5.16968C60.405 5.0758 59.7798 5.02949 59.1538 5.03117C52.5203 5.03375 47.0925 10.162 46.9051 16.6033Z" fill="#4793FF"/>
<path d="M15.5281 24.5925C15.4818 23.749 14.9757 22.9936 14.2007 22.6108C13.4256 22.228 12.4991 22.276 11.7703 22.7368C11.0416 23.1975 10.6211 24.0009 10.6674 24.8444C10.9169 29.3585 11.8275 33.0447 13.6227 36.8065C14.0481 37.6985 14.9986 38.2405 16.0076 38.1664C16.3008 38.147 16.5877 38.0744 16.8534 37.9524C17.441 37.6885 17.896 37.2078 18.1174 36.6168C18.3388 36.0259 18.3084 35.3735 18.0329 34.8044C16.5261 31.625 15.7452 28.4739 15.5281 24.5925Z" fill="#F2BF96"/>
<path d="M54.0501 22.3451C52.7085 22.2772 51.5634 23.2769 51.4902 24.5801C51.2763 28.4615 50.5019 31.6126 48.9821 34.7889C48.7077 35.3585 48.6782 36.0108 48.9002 36.6016C49.1221 37.1924 49.5773 37.6729 50.1649 37.9368C50.4306 38.0588 50.7174 38.1314 51.0106 38.1509C52.0197 38.2249 52.9701 37.6829 53.3956 36.791C55.1907 33.0418 56.1013 29.3555 56.3508 24.8288C56.4135 23.5285 55.3878 22.4212 54.0501 22.3451Z" fill="#F2BF96"/>
</svg>
