<svg width="63" height="49" viewBox="0 0 63 49" fill="none" xmlns="http://www.w3.org/2000/svg">
<path d="M23.3526 6.59909C28.2566 3.26204 34.6891 3.25357 39.6018 6.5777C40.2291 5.58879 40.9486 4.66192 41.7504 3.80955L41.9818 3.56512C35.6719 -0.857936 27.2801 -0.846948 20.9818 3.59262L21.2404 3.8676C22.0273 4.71042 22.7344 5.62485 23.3526 6.59909Z" fill="white"/>
<path fill-rule="evenodd" clip-rule="evenodd" d="M61.0674 2.62097C61.1135 2.63558 61.1582 2.65397 61.2013 2.67597C61.7963 2.91288 62.3748 3.1895 62.933 3.50397C62.4184 4.57746 61.8474 5.62284 61.2226 6.63571C57.3404 12.9056 51.4945 17.704 44.6022 20.2779L44.5626 20.2931C45.6217 28.8573 40.3017 41.1307 32.6504 47.113L31.4726 48.0296L30.2978 47.113C22.6435 41.1337 17.3326 28.8634 18.3826 20.3084H18.3643C11.4628 17.7369 5.6064 12.9387 1.71348 6.66626C1.08636 5.6542 0.514358 4.60876 0 3.53452C0.553249 3.21308 1.12896 2.93227 1.72261 2.6943C1.76575 2.67333 1.81054 2.65595 1.85652 2.64236C2.44237 2.40792 3.04206 2.20997 3.65217 2.04962C4.88284 1.73648 6.14738 1.57741 7.41696 1.57604C14.1729 1.57649 20.1039 6.08857 21.9313 12.6181C24.4199 9.98816 27.876 8.50087 31.4894 8.50491C35.1027 8.50896 38.5555 10.004 41.0383 12.6395C43.2504 4.72361 51.3452 0.0212703 59.2839 2.04045C59.8905 2.19426 60.4863 2.38819 61.0674 2.62097ZM18.9304 16.4006C18.8436 13.0711 17.3307 9.94093 14.7792 7.81198C12.2277 5.68303 8.88567 4.76214 5.60913 5.28524C8.95855 10.139 13.5647 13.9823 18.9304 16.4006ZM31.4787 43.0891L31.4756 43.0863C37.7406 37.3109 42.1489 26.1553 40.5757 19.5385L40.463 19.1993V19.1321C39.3089 15.1209 35.6513 12.3596 31.4924 12.3596C27.3335 12.3596 23.6759 15.1209 22.5217 19.1321V19.1932L22.4 19.5232C20.7994 26.1492 25.1955 37.3109 31.4756 43.0863L31.4726 43.0891H31.4787ZM44.0544 16.3703C44.0544 16.3713 44.0544 16.3722 44.0543 16.3731H44.0483C44.0503 16.3722 44.0524 16.3713 44.0544 16.3703ZM44.0544 16.3703C49.3934 13.944 53.9764 10.1086 57.3148 5.27302C56.7339 5.1819 56.1467 5.13695 55.5587 5.13858C49.3283 5.14109 44.2305 10.1185 44.0544 16.3703Z" fill="white"/>
<path d="M14.5843 24.1246C14.5408 23.3059 14.0656 22.5727 13.3376 22.2012C12.6096 21.8297 11.7395 21.8762 11.055 22.3234C10.3705 22.7706 9.97563 23.5503 10.0191 24.369C10.2535 28.7504 11.1087 32.3282 12.7948 35.9794C13.1943 36.8451 14.087 37.3711 15.0348 37.2993C15.3101 37.2804 15.5796 37.2099 15.8291 37.0915C16.381 36.8354 16.8084 36.3688 17.0163 35.7953C17.2243 35.2217 17.1957 34.5885 16.937 34.0362C15.5217 30.9502 14.7883 27.8918 14.5843 24.1246Z" fill="white"/>
<path d="M50.7652 21.9431C49.5051 21.8772 48.4296 22.8476 48.3609 24.1124C48.16 27.8797 47.4326 30.9381 46.0052 34.0209C45.7475 34.5738 45.7198 35.2069 45.9283 35.7803C46.1367 36.3537 46.5642 36.8201 47.1161 37.0763C47.3656 37.1947 47.6351 37.2651 47.9104 37.284C48.8582 37.3559 49.7509 36.8299 50.1504 35.9641C51.8365 32.3252 52.6917 28.7474 52.9261 24.3538C52.9849 23.0918 52.0216 22.017 50.7652 21.9431Z" fill="white"/>
</svg>
