<svg width="163" height="50" viewBox="0 0 163 50" fill="none" xmlns="http://www.w3.org/2000/svg">
<path d="M24.8637 6.53595C30.085 3.09778 36.9337 3.08905 42.1643 6.51392C42.8322 5.49504 43.5982 4.54008 44.452 3.66188L44.6983 3.41005C37.9801 -1.14704 29.0454 -1.13572 22.3394 3.43838L22.6149 3.72169C23.4526 4.59005 24.2055 5.53219 24.8637 6.53595Z" fill="#F2BF96"/>
<path fill-rule="evenodd" clip-rule="evenodd" d="M65.0189 2.43728C65.068 2.45233 65.1157 2.47128 65.1615 2.49394C65.795 2.73803 66.411 3.02303 67.0053 3.34703C66.4573 4.45305 65.8494 5.53011 65.1842 6.57367C61.0508 13.0335 54.8266 17.9773 47.4883 20.6292L47.4462 20.645C48.5738 29.4686 42.9096 42.1139 34.7632 48.2776L33.5091 49.222L32.2583 48.2776C24.1087 42.1171 18.4542 29.4749 19.5721 20.6607H19.5527C12.2045 18.0112 5.96918 13.0677 1.82435 6.60515C1.15665 5.56243 0.547641 4.4853 0 3.37851C0.589049 3.04732 1.20201 2.75801 1.83408 2.51283C1.88001 2.49122 1.9277 2.47332 1.97665 2.45931C2.60041 2.21777 3.2389 2.01382 3.8885 1.84861C5.1988 1.52598 6.54516 1.3621 7.89689 1.36068C15.09 1.36115 21.4048 6.00995 23.3504 12.7373C26.0001 10.0277 29.6798 8.49536 33.527 8.49952C37.3741 8.50369 41.0503 10.044 43.6938 12.7594C46.049 4.60363 54.6677 -0.241202 63.1201 1.83917C63.7659 1.99763 64.4003 2.19744 65.0189 2.43728ZM20.1554 16.6347C20.0629 13.2043 18.4521 9.97922 15.7355 7.78576C13.019 5.59229 9.46065 4.64351 5.97209 5.18245C9.53824 10.1833 14.4424 14.1431 20.1554 16.6347ZM33.5156 44.1318L33.5124 44.1289C40.1827 38.1785 44.8762 26.6848 43.2012 19.8675L43.0813 19.5181V19.4488C41.8525 15.3161 37.9582 12.4711 33.5302 12.4711C29.1021 12.4711 25.2079 15.3161 23.9791 19.4488V19.5118L23.8494 19.8518C22.1453 26.6785 26.8259 38.1785 33.5124 44.1289L33.5091 44.1318H33.5156ZM46.9051 16.6033C46.9051 16.6042 46.9051 16.6052 46.905 16.6062H46.8985C46.9007 16.6052 46.9029 16.6042 46.9051 16.6033ZM46.9051 16.6033C52.5895 14.1034 57.4691 10.1518 61.0235 5.16968C60.405 5.0758 59.7798 5.02949 59.1538 5.03117C52.5203 5.03375 47.0925 10.162 46.9051 16.6033Z" fill="#4793FF"/>
<path d="M15.5281 24.5925C15.4818 23.749 14.9757 22.9936 14.2007 22.6108C13.4256 22.228 12.4991 22.276 11.7703 22.7368C11.0416 23.1975 10.6211 24.0009 10.6674 24.8444C10.9169 29.3585 11.8275 33.0447 13.6227 36.8065C14.0481 37.6985 14.9986 38.2405 16.0076 38.1664C16.3008 38.147 16.5877 38.0744 16.8534 37.9524C17.441 37.6885 17.896 37.2078 18.1174 36.6168C18.3388 36.0259 18.3084 35.3735 18.0329 34.8044C16.5261 31.625 15.7452 28.4739 15.5281 24.5925Z" fill="#F2BF96"/>
<path d="M54.0501 22.3451C52.7085 22.2772 51.5634 23.2769 51.4902 24.5801C51.2763 28.4615 50.5019 31.6126 48.9821 34.7889C48.7077 35.3585 48.6782 36.0108 48.9002 36.6016C49.1221 37.1924 49.5773 37.6729 50.1649 37.9368C50.4306 38.0588 50.7174 38.1314 51.0106 38.1509C52.0197 38.2249 52.9701 37.6829 53.3956 36.791C55.1907 33.0418 56.1013 29.3555 56.3508 24.8288C56.4135 23.5285 55.3878 22.4212 54.0501 22.3451Z" fill="#F2BF96"/>
<path d="M80.2165 23.6083V27.0283C80.2165 27.4483 80.2945 27.7663 80.4505 27.9823C80.6185 28.1863 80.9125 28.2883 81.3325 28.2883C81.4765 28.2883 81.6265 28.2763 81.7825 28.2523C81.9505 28.2283 82.0885 28.1923 82.1965 28.1443L82.2325 30.3043C82.0285 30.3763 81.7705 30.4363 81.4585 30.4843C81.1465 30.5443 80.8345 30.5743 80.5225 30.5743C79.9225 30.5743 79.4185 30.5023 79.0105 30.3583C78.6025 30.2023 78.2725 29.9863 78.0205 29.7103C77.7805 29.4223 77.6065 29.0863 77.4985 28.7023C77.3905 28.3063 77.3365 27.8683 77.3365 27.3883V23.6083H75.8965V21.3943H77.3185V19.0363H80.2165V21.3943H82.3225V23.6083H80.2165ZM89.5237 23.8063C89.3917 23.7703 89.2597 23.7463 89.1277 23.7343C89.0077 23.7223 88.8877 23.7163 88.7677 23.7163C88.3717 23.7163 88.0357 23.7883 87.7597 23.9323C87.4957 24.0763 87.2797 24.2503 87.1117 24.4543C86.9557 24.6583 86.8417 24.8803 86.7697 25.1203C86.6977 25.3603 86.6617 25.5703 86.6617 25.7503V30.3583H83.7097V21.3943H86.5537V22.6903H86.5897C86.8177 22.2343 87.1417 21.8623 87.5617 21.5743C87.9817 21.2863 88.4677 21.1423 89.0197 21.1423C89.1397 21.1423 89.2537 21.1483 89.3617 21.1603C89.4817 21.1723 89.5777 21.1903 89.6497 21.2143L89.5237 23.8063ZM95.8572 26.4523H95.4792C95.1552 26.4523 94.8252 26.4703 94.4892 26.5063C94.1652 26.5303 93.8712 26.5843 93.6072 26.6683C93.3552 26.7523 93.1452 26.8783 92.9772 27.0463C92.8092 27.2023 92.7252 27.4123 92.7252 27.6763C92.7252 27.8443 92.7612 27.9883 92.8332 28.1083C92.9172 28.2283 93.0192 28.3243 93.1392 28.3963C93.2592 28.4683 93.3972 28.5223 93.5532 28.5583C93.7092 28.5823 93.8592 28.5943 94.0032 28.5943C94.6032 28.5943 95.0592 28.4323 95.3712 28.1083C95.6952 27.7723 95.8572 27.3223 95.8572 26.7583V26.4523ZM90.4392 22.6183C90.9672 22.1143 91.5792 21.7363 92.2752 21.4843C92.9832 21.2323 93.7032 21.1063 94.4352 21.1063C95.1912 21.1063 95.8272 21.2023 96.3432 21.3943C96.8712 21.5743 97.2972 21.8623 97.6212 22.2583C97.9452 22.6423 98.1792 23.1343 98.3232 23.7343C98.4792 24.3223 98.5572 25.0243 98.5572 25.8403V30.3583H95.8572V29.4043H95.8032C95.5752 29.7763 95.2272 30.0643 94.7592 30.2683C94.3032 30.4723 93.8052 30.5743 93.2652 30.5743C92.9052 30.5743 92.5332 30.5263 92.1492 30.4303C91.7652 30.3343 91.4112 30.1783 91.0872 29.9623C90.7752 29.7463 90.5172 29.4583 90.3132 29.0983C90.1092 28.7383 90.0072 28.2943 90.0072 27.7663C90.0072 27.1183 90.1812 26.5963 90.5292 26.2003C90.8892 25.8043 91.3452 25.4983 91.8972 25.2823C92.4612 25.0663 93.0852 24.9223 93.7692 24.8503C94.4532 24.7783 95.1192 24.7423 95.7672 24.7423V24.5983C95.7672 24.1543 95.6112 23.8303 95.2992 23.6263C94.9872 23.4103 94.6032 23.3023 94.1472 23.3023C93.7272 23.3023 93.3192 23.3923 92.9232 23.5723C92.5392 23.7523 92.2092 23.9683 91.9332 24.2203L90.4392 22.6183ZM106.305 30.3583H103.119L99.5905 21.3943H102.849L104.739 27.2083H104.793L106.683 21.3943H109.833L106.305 30.3583ZM117.147 24.8503C117.147 24.3823 116.997 23.9803 116.697 23.6443C116.409 23.3083 115.971 23.1403 115.383 23.1403C115.095 23.1403 114.831 23.1883 114.591 23.2843C114.351 23.3683 114.141 23.4883 113.961 23.6443C113.781 23.8003 113.637 23.9863 113.529 24.2023C113.421 24.4063 113.361 24.6223 113.349 24.8503H117.147ZM119.865 25.9843C119.865 26.1043 119.865 26.2243 119.865 26.3443C119.865 26.4643 119.859 26.5783 119.847 26.6863H113.349C113.373 26.9383 113.445 27.1663 113.565 27.3703C113.697 27.5743 113.859 27.7543 114.051 27.9103C114.255 28.0543 114.477 28.1683 114.717 28.2523C114.969 28.3363 115.227 28.3783 115.491 28.3783C115.959 28.3783 116.355 28.2943 116.679 28.1263C117.003 27.9463 117.267 27.7183 117.471 27.4423L119.523 28.7383C119.103 29.3503 118.545 29.8243 117.849 30.1603C117.165 30.4843 116.367 30.6463 115.455 30.6463C114.783 30.6463 114.147 30.5443 113.547 30.3403C112.947 30.1243 112.419 29.8183 111.963 29.4223C111.519 29.0143 111.165 28.5163 110.901 27.9283C110.649 27.3403 110.523 26.6683 110.523 25.9123C110.523 25.1803 110.649 24.5203 110.901 23.9323C111.153 23.3323 111.495 22.8283 111.927 22.4203C112.359 22.0003 112.869 21.6763 113.457 21.4483C114.045 21.2203 114.681 21.1063 115.365 21.1063C116.025 21.1063 116.631 21.2203 117.183 21.4483C117.735 21.6643 118.209 21.9823 118.605 22.4023C119.001 22.8223 119.307 23.3323 119.523 23.9323C119.751 24.5323 119.865 25.2163 119.865 25.9843ZM127.51 23.8063C127.378 23.7703 127.246 23.7463 127.114 23.7343C126.994 23.7223 126.874 23.7163 126.754 23.7163C126.358 23.7163 126.022 23.7883 125.746 23.9323C125.482 24.0763 125.266 24.2503 125.098 24.4543C124.942 24.6583 124.828 24.8803 124.756 25.1203C124.684 25.3603 124.648 25.5703 124.648 25.7503V30.3583H121.696V21.3943H124.54V22.6903H124.576C124.804 22.2343 125.128 21.8623 125.548 21.5743C125.968 21.2863 126.454 21.1423 127.006 21.1423C127.126 21.1423 127.24 21.1483 127.348 21.1603C127.468 21.1723 127.564 21.1903 127.636 21.2143L127.51 23.8063ZM138.02 25.8403C138.02 26.5723 137.888 27.2383 137.624 27.8383C137.36 28.4263 137 28.9303 136.544 29.3503C136.088 29.7583 135.56 30.0763 134.96 30.3043C134.36 30.5323 133.718 30.6463 133.034 30.6463C132.362 30.6463 131.72 30.5323 131.108 30.3043C130.508 30.0763 129.98 29.7583 129.524 29.3503C129.08 28.9303 128.726 28.4263 128.462 27.8383C128.198 27.2383 128.066 26.5723 128.066 25.8403C128.066 25.1083 128.198 24.4483 128.462 23.8603C128.726 23.2723 129.08 22.7743 129.524 22.3663C129.98 21.9583 130.508 21.6463 131.108 21.4303C131.72 21.2143 132.362 21.1063 133.034 21.1063C133.718 21.1063 134.36 21.2143 134.96 21.4303C135.56 21.6463 136.088 21.9583 136.544 22.3663C137 22.7743 137.36 23.2723 137.624 23.8603C137.888 24.4483 138.02 25.1083 138.02 25.8403ZM135.176 25.8403C135.176 25.5523 135.128 25.2703 135.032 24.9943C134.936 24.7183 134.798 24.4783 134.618 24.2743C134.438 24.0583 134.216 23.8843 133.952 23.7523C133.688 23.6203 133.382 23.5543 133.034 23.5543C132.686 23.5543 132.38 23.6203 132.116 23.7523C131.852 23.8843 131.63 24.0583 131.45 24.2743C131.282 24.4783 131.15 24.7183 131.054 24.9943C130.97 25.2703 130.928 25.5523 130.928 25.8403C130.928 26.1283 130.97 26.4103 131.054 26.6863C131.15 26.9623 131.288 27.2143 131.468 27.4423C131.648 27.6583 131.87 27.8323 132.134 27.9643C132.398 28.0963 132.704 28.1623 133.052 28.1623C133.4 28.1623 133.706 28.0963 133.97 27.9643C134.234 27.8323 134.456 27.6583 134.636 27.4423C134.816 27.2143 134.948 26.9623 135.032 26.6863C135.128 26.4103 135.176 26.1283 135.176 25.8403ZM149.393 25.8403C149.393 26.5723 149.261 27.2383 148.997 27.8383C148.733 28.4263 148.373 28.9303 147.917 29.3503C147.461 29.7583 146.933 30.0763 146.333 30.3043C145.733 30.5323 145.091 30.6463 144.407 30.6463C143.735 30.6463 143.093 30.5323 142.481 30.3043C141.881 30.0763 141.353 29.7583 140.897 29.3503C140.453 28.9303 140.099 28.4263 139.835 27.8383C139.571 27.2383 139.439 26.5723 139.439 25.8403C139.439 25.1083 139.571 24.4483 139.835 23.8603C140.099 23.2723 140.453 22.7743 140.897 22.3663C141.353 21.9583 141.881 21.6463 142.481 21.4303C143.093 21.2143 143.735 21.1063 144.407 21.1063C145.091 21.1063 145.733 21.2143 146.333 21.4303C146.933 21.6463 147.461 21.9583 147.917 22.3663C148.373 22.7743 148.733 23.2723 148.997 23.8603C149.261 24.4483 149.393 25.1083 149.393 25.8403ZM146.549 25.8403C146.549 25.5523 146.501 25.2703 146.405 24.9943C146.309 24.7183 146.171 24.4783 145.991 24.2743C145.811 24.0583 145.589 23.8843 145.325 23.7523C145.061 23.6203 144.755 23.5543 144.407 23.5543C144.059 23.5543 143.753 23.6203 143.489 23.7523C143.225 23.8843 143.003 24.0583 142.823 24.2743C142.655 24.4783 142.523 24.7183 142.427 24.9943C142.343 25.2703 142.301 25.5523 142.301 25.8403C142.301 26.1283 142.343 26.4103 142.427 26.6863C142.523 26.9623 142.661 27.2143 142.841 27.4423C143.021 27.6583 143.243 27.8323 143.507 27.9643C143.771 28.0963 144.077 28.1623 144.425 28.1623C144.773 28.1623 145.079 28.0963 145.343 27.9643C145.607 27.8323 145.829 27.6583 146.009 27.4423C146.189 27.2143 146.321 26.9623 146.405 26.6863C146.501 26.4103 146.549 26.1283 146.549 25.8403ZM154.418 28.7743C154.418 29.2783 154.238 29.6983 153.878 30.0343C153.53 30.3703 153.11 30.5383 152.618 30.5383C152.366 30.5383 152.126 30.4903 151.898 30.3943C151.682 30.3103 151.49 30.1903 151.322 30.0343C151.154 29.8783 151.022 29.6983 150.926 29.4943C150.83 29.2783 150.782 29.0443 150.782 28.7923C150.782 28.5523 150.83 28.3243 150.926 28.1083C151.022 27.8923 151.154 27.7063 151.322 27.5503C151.49 27.3823 151.682 27.2503 151.898 27.1543C152.126 27.0583 152.366 27.0103 152.618 27.0103C153.11 27.0103 153.53 27.1783 153.878 27.5143C154.238 27.8503 154.418 28.2703 154.418 28.7743Z" fill="#071F44"/>
</svg>
